<?xml version="1.0" encoding="UTF-8" standalone="no"?>
<!-- Created with Inkscape (http://www.inkscape.org/) -->

<svg
   width="210mm"
   height="210mm"
   viewBox="0 0 210 210"
   version="1.1"
   id="svg1"
   xml:space="preserve"
   xmlns:xlink="http://www.w3.org/1999/xlink"
   xmlns="http://www.w3.org/2000/svg"
   xmlns:svg="http://www.w3.org/2000/svg"><defs
     id="defs1"><linearGradient
       id="linearGradient2"><stop
         style="stop-color:#ff3500;stop-opacity:1;"
         offset="0"
         id="stop6" /><stop
         style="stop-color:#0087ff;stop-opacity:1;"
         offset="0.3369714"
         id="stop2" /><stop
         style="stop-color:#0287fd;stop-opacity:1;"
         offset="0.59345156"
         id="stop5" /><stop
         style="stop-color:#f7f5f5;stop-opacity:1;"
         offset="0.7557981"
         id="stop3" /></linearGradient><linearGradient
       xlink:href="#linearGradient2"
       id="linearGradient3"
       x1="-2.4701774"
       y1="105.06077"
       x2="211.26184"
       y2="105.06077"
       gradientUnits="userSpaceOnUse"
       gradientTransform="translate(0.66493958,-209.4566)" /></defs><g
     id="layer1"><rect
       style="opacity:0.746377;fill:url(#linearGradient3);fill-rule:evenodd;stroke:#939393;stroke-width:1.394;stroke-dasharray:none;stroke-opacity:1"
       id="rect2"
       width="212.33801"
       height="211.89471"
       x="-1.1082379"
       y="-210.34319"
       transform="rotate(90)" /><path
       style="fill:#000000;stroke-width:1.35478"
       d="m 7.921545,157.85581 c -1.0956104,-1.09561 -1.3411282,-2.40003 -0.6831439,-3.62948 0.7647209,-1.4289 1.6389651,-1.56248 10.5661479,-1.61461 l 8.602873,-0.0503 0.179227,-35.33486 0.179226,-35.334867 0.869003,-0.924924 c 1.136669,-1.209835 2.853322,-1.234356 4.218965,-0.06029 1.004108,0.863268 1.005933,0.873117 1.128999,6.095657 l 0.123258,5.230981 10.092645,-0.0095 c 5.550956,-0.0054 12.391228,-0.110144 15.200602,-0.23305 l 5.107957,-0.223552 V 86.95221 82.137406 l 1.047785,-1.047776 c 1.034271,-1.034282 2.433369,-1.340057 3.77527,-0.825131 1.654153,0.634757 1.629098,0.06097 1.629102,37.307491 l 6e-6,35.05658 h 62.541903 62.54192 l 0.97595,0.97598 c 1.25304,1.25303 1.33158,3.165 0.17743,4.31917 l -0.79855,0.79856 -93.21339,0.0916 -93.2133784,0.0916 z m 54.51052,-5.45671 c -6.2e-5,-0.12627 -2.056653,-1.98125 -4.570198,-4.12222 -2.513547,-2.14096 -5.657473,-4.9054 -6.986503,-6.14319 l -2.416418,-2.25053 -5.111287,4.54235 c -5.652257,5.02308 -8.516759,7.71745 -8.516268,8.01042 1.77e-4,0.10595 6.210427,0.19271 13.800555,0.19271 7.590128,0 13.800181,-0.10324 13.800119,-0.22954 z M 42.237593,134.75493 c -0.623479,-0.56453 -2.665985,-2.41952 -4.538901,-4.1222 -1.872918,-1.70269 -3.687586,-3.31719 -4.032598,-3.58776 -0.593979,-0.46583 -0.627293,0.007 -0.627293,8.90214 v 9.39409 l 5.166195,-4.77993 5.166194,-4.77992 z m 21.190654,-3.41941 -0.100159,-4.66735 -4.940777,4.37736 c -2.717426,2.40755 -4.935733,4.49878 -4.929572,4.64717 0.0061,0.14839 1.906902,1.93908 4.22387,3.97933 2.316966,2.04024 4.535275,4.07354 4.929572,4.51843 l 0.716907,0.80892 0.100159,-4.49825 c 0.05509,-2.47403 0.05509,-6.59855 0,-9.16561 z m -14.045775,-0.80413 c 0.375567,-0.42311 2.748231,-2.59075 5.272588,-4.81697 2.524358,-2.22623 4.621307,-4.10845 4.65989,-4.18271 0.03858,-0.0742 -2.397183,-2.26851 -5.412812,-4.87616 l -5.482961,-4.74116 -4.203426,3.68906 c -2.311886,2.02898 -4.844972,4.21994 -5.629083,4.8688 l -1.425656,1.17974 1.638679,1.50865 c 2.983828,2.74708 9.368044,8.14004 9.636214,8.14004 0.145044,0 0.571,-0.34618 0.946567,-0.76929 z M 38.120658,112.34586 c 2.429432,-2.24345 4.465288,-4.20254 4.524123,-4.35351 0.104969,-0.26935 -9.002501,-8.593986 -9.402136,-8.593986 -0.112109,0 -0.203844,3.884726 -0.203844,8.632746 0,5.15014 0.134083,8.58454 0.332354,8.51325 0.182794,-0.0657 2.320071,-1.95504 4.749503,-4.1985 z m 25.30807,-8.96575 -0.100647,-4.262656 -4.932789,4.290316 c -2.713033,2.35968 -4.836311,4.44643 -4.718398,4.63722 0.117921,0.1908 2.337669,2.12234 4.932789,4.29234 l 4.718398,3.94545 0.100647,-4.32 c 0.05536,-2.376 0.05536,-6.2382 0,-8.58267 z m -9.599651,-4.557406 c 0,-0.0776 -2.540535,-0.13904 -5.645635,-0.13634 l -5.645636,0.005 2.867625,2.638536 2.867625,2.63854 2.77801,-2.50219 c 1.527907,-1.3762 2.778011,-2.565756 2.778011,-2.643436 z m 34.383917,16.733616 c -1.413176,-1.41317 -1.429408,-3.11236 -0.04243,-4.44117 l 1.00536,-0.9632 h 19.270806 c 12.53159,0 19.51196,0.12911 19.96042,0.36907 0.3793,0.203 0.94349,0.85999 1.25376,1.45999 0.78816,1.52414 0.38086,3.06517 -1.03898,3.93093 -1.07838,0.65754 -2.01625,0.68956 -20.24596,0.69083 l -19.115189,10e-4 z m 94.631596,0 c -0.71512,-0.71511 -1.04779,-1.40672 -1.04779,-2.17829 0,-0.77158 0.33267,-1.46318 1.04779,-2.17829 l 1.04777,-1.04779 h 5.32461 c 5.85571,0 6.45897,0.17726 7.27049,2.13644 0.36298,0.87633 0.36277,1.30345 -0.001,2.1819 -0.75426,1.82096 -1.85837,2.13382 -7.53029,2.13382 h -5.06372 z m -36.39127,-3.39704 c -0.6703,-0.67031 -1.21873,-1.49308 -1.21873,-1.82839 0,-0.49877 0.73611,-3.24875 2.37468,-8.87143 0.17136,-0.58803 -0.53102,-0.62762 -11.22224,-0.63257 -12.20495,-0.005 -12.50038,-0.0451 -13.83673,-1.845386 -0.8564,-1.15374 -0.6324,-2.466116 0.63771,-3.736225 l 0.86526,-0.86526 h 12.54834 12.54833 l 0.35917,-1.344202 c 0.19752,-0.739305 1.8091,-7.312442 3.58127,-14.60696 4.14167,-17.047728 6.37394,-26.006256 6.67659,-26.794358 0.22821,-0.594269 -1.30115,-0.627293 -29.0509,-0.627293 h -29.29179 l -3.863934,3.763757 c -4.248728,4.138574 -5.095994,4.510287 -6.426138,2.819284 -0.408608,-0.519461 -0.742922,-1.182927 -0.742922,-1.47437 0,-0.291444 0.738549,-2.863778 1.641222,-5.716298 l 1.641223,-5.1864 -0.884902,-1.314808 c -0.486696,-0.723146 -2.354373,-2.988662 -4.150394,-5.034479 -2.413377,-2.749038 -3.265492,-3.975645 -3.265492,-4.700623 0,-1.167834 1.559485,-2.870978 2.628814,-2.870978 0.406333,0 2.924874,1.031861 5.596756,2.293025 2.67188,1.261163 6.409947,2.954853 8.306807,3.763756 l 3.44886,1.470731 h 5.04106 c 2.77259,0 5.44711,0.154375 5.94338,0.343054 1.64247,0.624469 2.55216,3.367016 1.47432,4.444854 -0.29572,0.295725 -0.53769,0.629854 -0.53769,0.742511 0,0.112664 17.33117,0.20483 38.51371,0.20483 h 38.51372 l 0.98779,-0.849665 c 0.94848,-0.815853 0.96461,-0.88504 0.40528,-1.738684 -0.32038,-0.48896 -1.19947,-1.195412 -1.95354,-1.569893 -1.30648,-0.648808 -2.84261,-0.689315 -32.61737,-0.8601 l -31.24631,-0.179227 -0.92484,-0.869003 c -1.07782,-1.012731 -1.25307,-2.983541 -0.37659,-4.234877 0.63366,-0.904686 2.5533,-1.522634 4.73893,-1.525502 0.83788,-0.0011 1.52342,-0.12865 1.52342,-0.283444 0,-0.154795 -2.34187,-1.949327 -5.20415,-3.987847 -2.86227,-2.038521 -5.29135,-3.847518 -5.39794,-4.019991 -0.10662,-0.172474 -7.28967,-0.313589 -15.96239,-0.313589 -17.381271,0 -17.470642,-0.0107 -18.392928,-2.204185 -0.563806,-1.340897 -0.353847,-2.570577 0.583937,-3.420001 0.646693,-0.585761 1.739288,-0.666142 11.254291,-0.827969 6.5972,-0.112203 10.56361,-0.313275 10.60638,-0.53768 0.0375,-0.197148 -2.41974,-2.004903 -5.46069,-4.01723 -3.04095,-2.012328 -5.73353,-3.9384783 -5.9835,-4.2803343 -0.81926,-1.120409 -0.55446,-2.9488916 0.5933,-4.0966381 1.84903,-1.8490391 1.33486,-2.0542551 16.69563,6.6636084 9.07657,5.151326 18.30271,10.311128 24.01635,13.431357 3.35154,1.830282 7.9487,4.395046 10.21591,5.699477 l 4.1222,2.371693 17.74343,0.185489 c 17.6353,0.184359 17.75654,0.190688 19.89414,1.038552 5.58766,2.216296 9.47851,6.820785 9.04131,10.699625 -0.22387,1.98609 -1.12183,3.235482 -3.13226,4.358106 -2.86607,1.600411 -4.76187,1.808505 -16.53064,1.814507 l -10.98005,0.0056 -1.51244,4.391049 c -0.83183,2.415078 -2.20993,6.488 -3.06243,9.050939 -0.8525,2.562949 -3.8843,11.515302 -6.73735,19.894148 -9.89642,29.063907 -9.49501,28.037177 -11.21794,28.692227 -1.52866,0.5812 -2.31285,0.38917 -3.5783,-0.87628 z M 82.084492,100.21845 c -1.942213,-1.204896 -2.232073,-3.240675 -0.682106,-4.790641 l 1.047785,-1.04779 h 10.892801 c 10.446888,0 10.924738,0.02981 11.672958,0.726828 1.70159,1.585286 1.22975,3.981297 -1.00384,5.097473 -1.10426,0.55182 -2.43253,0.62567 -11.111634,0.61776 -8.547305,-0.008 -9.984853,-0.0881 -10.815964,-0.60363 z m 92.563438,-0.17112 c -1.46533,-0.990266 -1.89383,-2.281656 -1.25848,-3.792711 0.75007,-1.783897 1.31536,-1.898959 8.80808,-1.792757 l 6.87099,0.09741 0.72532,0.97203 c 1.02749,1.376988 0.93564,2.983112 -0.23781,4.157652 l -0.96311,0.964016 -6.35973,0.11123 c -6.14461,0.10757 -6.40119,0.0833 -7.58526,-0.71691 z M 39.866712,85.8496 c -1.393241,-1.393245 -1.4813,-3.132949 -0.227081,-4.486269 1.762728,-1.902021 4.52192,-1.524348 5.471765,0.748951 0.990113,2.369665 -0.131848,4.290761 -2.707691,4.636257 -1.263196,0.16943 -1.581362,0.05663 -2.536993,-0.898939 z m 13.041024,0.657111 c -0.408163,-0.165203 -1.013052,-0.713863 -1.344199,-1.219251 -2.188361,-3.339866 2.337383,-7.021123 5.160737,-4.197768 2.740019,2.740008 -0.182345,6.88788 -3.816538,5.417019 z m 51.178444,-9.707943 c -0.45235,-0.181541 -1.0594,-0.897191 -1.34901,-1.590325 -0.45834,-1.096982 -0.46021,-1.419041 -0.0144,-2.485973 0.28168,-0.674154 0.83781,-1.40002 1.23583,-1.613046 0.48808,-0.261202 6.05022,-0.387305 17.08443,-0.387305 h 16.36075 l 1.04779,1.047789 c 1.46975,1.46975 1.44832,3.211351 -0.055,4.476366 l -1.10287,0.928 -16.1925,-0.02276 c -8.97183,-0.01219 -16.55923,-0.169903 -17.01492,-0.352785 z m 70.51398,-0.67227 c -0.71511,-0.715123 -1.04779,-1.406726 -1.04779,-2.178302 0,-0.771562 0.33268,-1.463179 1.04779,-2.178288 l 1.04779,-1.047789 h 5.1768 c 4.62028,0 5.274,0.07641 6.08099,0.711234 1.13813,0.895254 1.51012,2.321868 0.95493,3.662223 -0.72473,1.749634 -1.88481,2.078698 -7.32824,2.078698 h -4.88448 z M 13.654766,73.97578 c -0.631655,-0.631668 -1.047787,-1.425598 -1.047787,-1.999078 0,-0.573466 0.416132,-1.36741 1.047787,-1.999064 l 1.047785,-1.047775 h 5.942048 c 3.268127,0 5.942049,-0.138825 5.942049,-0.308484 0,-0.429819 -5.697367,-19.772055 -5.93926,-20.163445 -0.108206,-0.175094 -1.082413,-0.318351 -2.164889,-0.318351 -1.082476,0 -2.439952,-0.243986 -3.016615,-0.54219 -1.964028,-1.015639 -2.006127,-4.202503 -0.07225,-5.469625 0.818411,-0.536244 2.384986,-0.587128 15.420121,-0.50087 l 14.509164,0.09601 -0.22758,-1.137906 C 44.97017,39.959153 44.867757,38.741391 44.867757,37.878863 v -1.568232 h -8.082994 c -9.895816,0 -10.576574,-0.215942 -10.545163,-3.345007 0.01273,-1.272572 0.508992,-2.073019 1.667686,-2.690144 0.53014,-0.282353 3.45267,-0.417004 9.050939,-0.417004 h 8.267984 v -8.439937 -8.43994 l 0.87984,-0.879839 c 1.083271,-1.08327 2.981432,-1.171714 4.188405,-0.195158 0.841092,0.680524 0.846885,0.737117 0.953951,9.319779 l 0.107718,8.635097 h 8.064886 c 8.767685,0 9.650313,0.165374 10.468671,1.961475 0.632825,1.388901 0.527905,2.184027 -0.436202,3.305718 l -0.864441,1.005735 -8.724178,0.179227 -8.724177,0.179227 v 2.50917 2.509171 l 13.318263,0.03799 c 7.325046,0.02089 13.810579,0.136449 14.4123,0.256793 0.7272,0.14544 1.279495,0.577449 1.647149,1.288413 1.35859,2.627223 0.105646,4.606489 -3.125735,4.937711 l -2.065812,0.21175 -0.566509,2.010469 c -0.311581,1.105759 -1.026699,3.62351 -1.589154,5.595001 -0.562453,1.971492 -1.521317,5.439525 -2.130808,7.70674 -0.609491,2.267216 -1.193555,4.404482 -1.29792,4.749505 -0.175407,0.579861 0.260495,0.627292 5.76517,0.627292 5.844573,0 5.971227,0.01626 6.834761,0.879836 1.233286,1.233287 1.168951,2.829181 -0.167945,4.166081 l -1.047788,1.047773 H 47.914602 14.702551 Z m 49.87097,-6.569344 c 0.4266,-1.60662 4.89377,-17.565357 5.217584,-18.639561 0.178574,-0.59239 -0.969002,-0.627292 -20.625335,-0.627292 -17.436502,0 -20.814432,0.08011 -20.814432,0.493593 0,0.271477 0.493055,2.086146 1.095677,4.032596 0.602621,1.946453 1.821326,6.119865 2.708232,9.274251 0.886906,3.154388 1.695152,6.017525 1.796104,6.362548 0.17103,0.584508 1.207535,0.627292 15.200601,0.627292 h 15.017056 z m 38.812244,-5.786822 c -0.79745,-0.685942 -0.99759,-1.161002 -0.99759,-2.367989 0,-1.206987 0.20014,-1.682046 0.99759,-2.367987 0.92712,-0.797479 1.2885,-0.858089 5.1161,-0.858089 3.89481,0 4.16631,0.04778 4.99835,0.879838 0.59546,0.595459 0.87983,1.281137 0.87983,2.121402 0,2.867312 -1.05445,3.450914 -6.23513,3.450914 -3.45108,0 -3.84391,-0.07083 -4.75915,-0.858089 z m 27.64991,0.517012 c -1.53668,-0.622877 -2.24296,-2.409567 -1.58265,-4.003689 0.79978,-1.930853 1.65407,-2.107388 10.19797,-2.107388 9.55197,0 10.2159,0.221147 10.2159,3.402756 0,0.892571 -0.278,1.427335 -1.10286,2.121401 l -1.10286,0.927997 -7.94808,-0.02272 c -4.37144,-0.01246 -8.27627,-0.155757 -8.67742,-0.318357 z m 49.22421,-0.147602 c -1.59828,-1.214292 -1.61304,-3.995276 -0.0279,-5.242202 0.79192,-0.622917 1.4518,-0.721273 4.83917,-0.721273 3.85715,0 3.9396,0.01738 4.97001,1.047785 1.46975,1.469748 1.44831,3.211349 -0.055,4.476372 -1.04473,0.879079 -1.31399,0.927396 -5.10796,0.916597 -2.71656,-0.0077 -4.20238,-0.161284 -4.6183,-0.477279 z M 72.799513,23.075444 c -1.432717,-1.432718 -1.430878,-3.110949 0.0049,-4.486527 2.829647,-2.710974 7.071489,0.04532 5.576433,3.623491 -0.922083,2.206857 -3.79352,2.650863 -5.581347,0.863036 z m 80.957357,0.507117 c -1.96482,-1.10265 -2.33927,-3.571811 -0.76319,-5.032469 0.87891,-0.814555 1.21873,-0.879017 4.63387,-0.879017 3.55445,0 3.71179,0.03356 4.42831,0.944473 1.07159,1.362311 0.99032,3.357914 -0.18161,4.459452 -0.81065,0.761948 -1.30743,0.880503 -4.03261,0.962354 -2.26552,0.06804 -3.37282,-0.05523 -4.08477,-0.454793 z"
       id="path1" /><text
       xml:space="preserve"
       style="font-size:37.8929px;font-family:'Arial Rounded MT Bold';-inkscape-font-specification:'Arial Rounded MT Bold, ';letter-spacing:0.654244px;word-spacing:0.633521px;fill:#dddddd;fill-rule:evenodd;stroke:#000000;stroke-width:1.55972;stroke-dasharray:none;stroke-opacity:1"
       x="8.7262945"
       y="196.68826"
       id="text1"
       transform="scale(1.0154511,0.984784)"><tspan
         id="tspan1"
         style="font-style:normal;font-variant:normal;font-weight:normal;font-stretch:normal;font-size:37.8929px;font-family:'Varela Round';-inkscape-font-specification:'Varela Round';fill:#000000;fill-opacity:1;stroke:#000000;stroke-width:1.55972;stroke-dasharray:none;stroke-opacity:1"
         x="8.7262945"
         y="196.68826">flightdeck</tspan></text><text
       xml:space="preserve"
       style="font-style:normal;font-variant:normal;font-weight:normal;font-stretch:normal;font-size:33.8667px;font-family:'Varela Round';-inkscape-font-specification:'Varela Round';letter-spacing:0.584729px;word-spacing:0.566208px;fill:#000000;fill-opacity:1;fill-rule:evenodd;stroke:#000000;stroke-width:1.394;stroke-dasharray:none;stroke-opacity:1"
       x="85.112518"
       y="146.73044"
       id="text2"><tspan
         id="tspan2"
         style="stroke-width:1.394"
         x="85.112518"
         y="146.73044">WWW</tspan></text></g></svg>
